# xmcd CD database file
#
# Track frame offsets:
#	150
#	24665
#	52646
#	74327
#	107008
#	131839
#	165818
#	192600
#	227376
#	257958
#	285526
#
# Disc length: 4144 seconds
#
# Revision: 0
# Processed by: cddbd v1.5.2PL0 Copyright (c) Steve Scherf et al.
# Submitted via: CDex 1.70beta2
#
DISCID=91102e0b
DTITLE=Michael Scheunemann 5 - Light Blue
DYEAR=2001
DGENRE=Jazz
TTITLE0=In A Fancy Mood
TTITLE1=Chestnuts In My Pocket
TTITLE2=Relaxin' At Cor's
TTITLE3=De Paarse Olifant
TTITLE4=Sibylle's Favorite
TTITLE5=Light Blue
TTITLE6=How Do You Do Today
TTITLE7=Don't Spoil My Groove
TTITLE8=Katrina Ballerina
TTITLE9=Angela
TTITLE10=Too much A'Talkin'
EXTD=YEAR: 2001
EXTT0=
EXTT1=
EXTT2=
EXTT3=
EXTT4=
EXTT5=
EXTT6=
EXTT7=
EXTT8=
EXTT9=
EXTT10=
PLAYORDER=
